# xmcd
#
# Track frame offsets:
#	150
#	15483
#	30589
#	46801
#	62983
#	76812
#	96898
#	108543
#	126139
#	141958
#	159275
#	175348
#	191775
#	212900
#	226500
#	242862
#	256618
#	272816
#	289076
#
# Disc length: 4052 seconds
#
# Revision: 1
# Processed by: cddbd v1.5.2PL0 Copyright (c) Steve Scherf et al.
# Submitted via: audiograbber 1.83.01
#
DISCID=030fd213
DTITLE=Various Artist - Hott Country 197
DYEAR=2012
DGENRE=Country
TTITLE0=Aaron Pritchett - Summertime
TTITLE1=merson Drive - She's My kind Of Crazy
TTITLE2=Kip Moore - Beer Money
TTITLE3=Jarvis Church - Do It Better ( Radio Edit )
TTITLE4=High Valley - Let It Be Me
TTITLE5=Randy Travis Feat Don Henley - More Life
TTITLE6=Jerry Sereda - That'l Get you Drinkin'
TTITLE7=Carrie Underwood - Blown Away
TTITLE8=Trace Adkins - Tem Lips ( On Mine )
TTITLE9=Eric Church - Creepin' ( Radio Edit )
TTITLE10=Jess Mosalike - Catch Me If You Can
TTITLE11=Casey James - Crying In A Suitcase
TTITLE12=Paul Brandt - Now
TTITLE13=Bucky Covington - I Wanna be That Feeling
TTITLE14=Shane Chisholm - This Flight Tonight
TTITLE15=Jake Matthews - Red Tail Lights
TTITLE16=Miss Willie Brown - You're All That Matters to Me
TTITLE17=Josh Turner - Punching Bag
TTITLE18=Craig Morgan - Corn Star
EXTD=July 2012
EXTT0=
EXTT1=
EXTT2=
EXTT3=
EXTT4=
EXTT5=
EXTT6=
EXTT7=
EXTT8=
EXTT9=
EXTT10=
EXTT11=
EXTT12=
EXTT13=
EXTT14=
EXTT15=
EXTT16=
EXTT17=
EXTT18=
PLAYORDER=
